<?xml version="1.0" encoding="iso-8859-1"?>
<!-- Uploaded to: SVG Repo, www.svgrepo.com, Generator: SVG Repo Mixer Tools -->
<svg fill="#000000" height="800px" width="800px" version="1.1" id="Layer_1" xmlns="http://www.w3.org/2000/svg" xmlns:xlink="http://www.w3.org/1999/xlink" 
	 viewBox="0 0 299.616 299.616" xml:space="preserve">
<g>
	<g>
		<g>
			<path d="M70.234,164.329c-0.029-0.029-0.058-0.056-0.087-0.085c-16.509-15.712-13.703-22.602-13.703-45.594
				c0-5.443-6.201-8.611-10.613-5.39c-49.979,36.514-46.046,80.278-45.569,84.282c1.384,21.913,19.602,39.033,41.607,39.033
				c22.99,0,41.694-18.704,41.694-41.694C83.561,183.321,78.707,172.199,70.234,164.329z M41.868,223.225
				c-15.025,0-27.454-11.739-28.295-26.726c-1.389-24.702,11-46.9,29.338-63.655c-0.109,40.318,27.301,36.276,27.301,62.037
				C70.212,210.51,57.497,223.225,41.868,223.225z"/>
			<path d="M188.757,137.61c-0.044-0.043-0.087-0.085-0.13-0.127c-24.779-23.584-20.645-34.783-20.645-67.782
				c0-5.443-6.201-8.611-10.613-5.39c-37.697,27.541-53.216,58.143-59.596,78.963c-6.677,21.787-5.081,37.681-4.83,39.763
				c0.875,14.181,6.972,27.442,17.19,37.374c10.265,9.977,23.78,15.693,38.073,16.12c30.097,1.547,58.825-23.53,58.825-57.057
				C207.031,163.631,200.374,148.391,188.757,137.61z M150.099,223.214c-0.075,0.001-0.148,0.012-0.222,0.012
				c-0.002,0-0.004,0-0.006,0c-8.569,0-18.208-6.106-18.656-19.495c-0.156-5.053,0.721-22.173,17.633-39.393
				c0.484,9.269,3.458,17.322,13.556,26.691C174.722,202.337,166.855,223.01,150.099,223.214z M181.332,209.909
				c1.744-10.526-1.921-21.291-9.743-28.57c-0.022-0.021-0.045-0.044-0.068-0.065c-11.236-10.693-9.287-14.99-9.287-31.474
				c0-2.513-1.412-4.813-3.653-5.951c-4.108-2.086-6.98,0.496-9.971,2.845c-24.456,19.208-33.136,44.375-30.242,62.959
				c-6.997-7.301-11.517-16.995-12.116-27.685c-0.642-11.179,0.245-21.907,4.501-35.482c5.206-16.603,16.998-40.2,43.695-62.893
				c-0.394,22.003-0.375,40.187,25.056,63.645c9.01,8.271,14.178,20.021,14.178,32.235
				C193.681,191.289,188.971,202.028,181.332,209.909z"/>
			<path d="M286.285,164.328c-0.029-0.028-0.057-0.056-0.086-0.084c-16.51-15.712-13.703-22.602-13.703-45.594
				c0-5.455-6.208-8.604-10.613-5.39c-49.978,36.514-46.046,80.278-45.569,84.282c1.384,21.913,19.602,39.033,41.607,39.033
				C295.771,236.575,313.9,189.979,286.285,164.328z M257.92,223.225c-15.025,0-27.454-11.739-28.295-26.726
				c-1.389-24.702,11-46.9,29.338-63.655c-0.109,40.32,27.302,36.276,27.302,62.037C286.264,210.51,273.548,223.225,257.92,223.225z
				"/>
		</g>
	</g>
</g>
</svg>