<?xml version="1.0" encoding="utf-8"?>
<!-- Uploaded to: SVG Repo, www.svgrepo.com, Generator: SVG Repo Mixer Tools -->
<svg fill="#000000" version="1.1" id="Layer_1" xmlns="http://www.w3.org/2000/svg" xmlns:xlink="http://www.w3.org/1999/xlink" 
	 width="800px" height="800px" viewBox="0 0 245 256" enable-background="new 0 0 245 256" xml:space="preserve">
<path d="M190,63.24V7h-31v27.73L122.97,1.82L1.94,110.15l18.4,20.74L39,114.04V254h167V115.08l18.36,16.85l18.89-20.22L190,63.24z
	 M90.6,207.57c-13.5,0-24.4-9.09-24.4-20.28c0-2.65,0.9-5.31,1.52-7.28c0.4-1.25,23.11-39.82,23.11-39.82v-0.34l22.02,39.82
	c0,0,1.92,3.33,2.15,7.62C115,198.53,104.1,207.57,90.6,207.57z M162.02,143.81c0.06,0.46,0.09,0.93,0.09,1.41v80.54
	c0,3.27-1.34,6.24-3.49,8.39c-2.16,2.15-5.12,3.49-8.39,3.49c-6.54,0-11.89-5.34-11.89-11.88v-80.54c0-0.48,0.03-0.95,0.09-1.41
	c-8.66-4.33-14.61-13.28-14.61-23.62c0-11.18,6.95-20.73,16.76-24.58v24.58h19.3V95.61c9.8,3.85,16.75,13.4,16.75,24.58
	C176.63,130.53,170.68,139.48,162.02,143.81z"/>
</svg>