<?xml version="1.0" encoding="utf-8"?>
<!-- Svg Vector Icons : http://www.onlinewebfonts.com/icon -->
<!DOCTYPE svg PUBLIC "-//W3C//DTD SVG 1.1//EN" "http://www.w3.org/Graphics/SVG/1.1/DTD/svg11.dtd">
<svg version="1.1" xmlns="http://www.w3.org/2000/svg" xmlns:xlink="http://www.w3.org/1999/xlink" x="0px" y="0px" viewBox="0 0 1000 1000" enable-background="new 0 0 1000 1000" xml:space="preserve">
<metadata> Svg Vector Icons : http://www.onlinewebfonts.com/icon </metadata>
<g><g transform="translate(0.000000,511.000000) scale(0.100000,-0.100000)"><path d="M4647.1,5001.3c-639.8-45.5-1293.2-227.7-1864.6-519.1C1327.7,3742.3,335.1,2328.4,125.6,698.3c-34.2-277.8-34.2-906.1,0-1183.9c214-1657.4,1236.2-3091.7,2722.9-3815.7C3554.3-4642.8,4205.4-4793,5000-4793c794.6,0,1445.7,150.3,2151.5,491.8c1463.9,712.6,2463.4,2090,2709.2,3736c52.4,337,52.4,1006.3,0,1343.3c-214,1432-983.5,2647.8-2174.2,3433.2C6807.7,4789.5,5708.1,5076.4,4647.1,5001.3z M5683,3230c953.9-223.1,1748.5-842.4,2178.8-1696.1c113.8-227.7,248.1-648.9,293.7-922.1c50.1-311.9,34.2-901.6-31.9-1188.5c-145.7-621.5-425.7-1129.2-869.7-1570.9c-373.4-375.7-753.6-610.1-1249.9-774.1c-350.6-116.1-623.8-159.4-1004-159.4c-869.7,0-1641.5,318.7-2253.9,933.4c-455.3,453.1-744.5,985.8-881.1,1623.3c-56.9,264.1-56.9,997.2,0,1261.3C2147.3,2053,3158.2,3027.4,4476.4,3261.9C4733.6,3307.4,5432.6,3289.2,5683,3230z"/><path d="M4710.9,3004.6c-91.1-11.4-91.1,2.3-29.6-450.8c70.6-519.1,61.5-489.5,129.8-489.5h59.2l-15.9,291.4c-22.8,457.6-41,664.8-56.9,660.2C4790.5,3016,4749.6,3009.2,4710.9,3004.6z"/><path d="M4981.8,2549.3l6.8-473.5l63.8-6.8c54.6-6.8,61.5,0,63.8,68.3c0,41,13.7,252.7,27.3,469c15.9,216.3,22.8,398.4,18.2,405.3c-4.6,4.6-50.1,9.1-97.9,9.1h-86.5L4981.8,2549.3z"/><path d="M5252.7,2674.5c-13.7-179.9-31.9-387-41-464.4c-11.4-136.6-11.4-138.9,47.8-150.3c50.1-11.4,59.2-2.3,70.6,59.2c97.9,539.6,141.2,846.9,116.1,860.6c-13.7,9.1-56.9,18.2-95.6,18.2H5280L5252.7,2674.5z"/><path d="M4360.2,2947.7l-84.2-20.5l118.4-455.3c116.1-453.1,132.1-487.2,209.5-434.8c18.2,11.4,0,150.3-56.9,464.5c-45.5,245.9-86.5,453.1-93.3,457.6C4446.8,2963.6,4405.8,2959.1,4360.2,2947.7z"/><path d="M5626.1,2897.6c-36.4-138.9-189-867.4-184.4-872c2.3-4.5,29.6-9.1,59.2-11.4c52.4-6.8,61.5,13.7,170.8,380.2c168.5,557.8,163.9,503.2,56.9,530.5C5644.3,2945.4,5635.2,2943.1,5626.1,2897.6z"/><path d="M4027.9,2854.4c-41-11.4-75.1-34.2-75.1-47.8c0-54.6,327.8-856,350.6-856c13.7,0,38.7,9.1,56.9,20.5c27.3,18.2,11.4,91.1-97.9,450.8c-72.9,234.5-138.9,434.8-145.7,441.7C4107.5,2870.3,4066.6,2865.7,4027.9,2854.4z"/><path d="M5969.9,2817.9c-41-63.7-289.1-831-277.8-858.3c6.8-18.2,29.6-31.9,52.4-31.9c31.9,0,84.2,95.6,218.5,405.2c95.6,220.8,175.3,414.4,175.3,428s-25.1,36.4-56.9,50.1C6010.8,2843,5985.8,2845.2,5969.9,2817.9z"/><path d="M3686.3,2706.4l-72.8-38.7l150.3-273.2c314.2-582.8,300.5-560.1,350.6-535c22.8,13.7,43.3,34.2,43.3,47.8c0,36.4-359.7,826.4-380.2,833.3C3768.3,2742.8,3727.3,2726.9,3686.3,2706.4z"/><path d="M6092.8,2287.5c-177.6-371.1-195.8-418.9-163.9-446.2c20.5-15.9,45.5-25,56.9-20.5c25,6.8,471.3,758.1,471.3,790c0,20.5-116.1,91.1-148,91.1C6300,2701.8,6204.4,2515.1,6092.8,2287.5z"/><path d="M3417.7,2551.5c-25-20.5-59.2-43.3-75.1-52.4c-22.8-13.7,38.7-116.1,239-396.1c148-209.5,275.5-380.2,282.3-380.2c6.8,0,31.9,13.7,54.6,31.9c38.7,27.3,29.6,50.1-177.6,391.6C3456.4,2617.6,3474.6,2594.8,3417.7,2551.5z"/><path d="M6354.6,2139.5c-186.7-286.9-241.3-387-223.1-414.4c41-66,68.3-47.8,193.5,116.1c68.3,91.1,198.1,259.5,286.9,375.7l163.9,209.4l-77.4,45.5c-41,27.3-82,47.8-86.5,47.8C6605.1,2519.7,6489,2348.9,6354.6,2139.5z"/><path d="M3110.4,2321.6l-72.9-66l289.1-318.7c159.4-173,302.8-330.1,318.7-346c20.5-25,36.4-22.8,75.1,11.4l47.8,41l-129.8,161.6c-70.6,88.8-202.6,255-293.7,371.1l-161.6,209.5L3110.4,2321.6z"/><path d="M6593.7,1961.9c-296-350.6-300.5-357.4-259.6-400.7c43.3-41,50.1-36.4,373.4,286.9l330.1,330.1l-70.6,70.6l-70.6,70.6L6593.7,1961.9z"/><path d="M2850.8,2066.6l-61.5-63.8l302.8-259.5c166.2-141.1,325.6-277.7,352.9-300.5c50.1-45.5,52.4-45.5,97.9-4.6c47.8,43.3,45.5,45.5-277.8,368.8c-177.6,179.9-330.1,325.6-336.9,325.6C2919.1,2132.6,2885,2103.1,2850.8,2066.6z"/><path d="M6814.5,1759.3c-184.4-173-334.7-327.8-334.7-343.8c0-15.9,13.7-38.7,29.6-52.4c22.8-18.2,118.4,45.5,398.4,268.6l371.1,291.4l-66,75.1l-63.7,72.8L6814.5,1759.3z"/><path d="M2632.2,1802.5c-29.6-47.8-43.3-91.1-31.9-102.5c11.4-9.1,186.7-125.2,389.3-257.3c359.7-234.5,368.8-239,407.5-195.8c22.8,27.3,31.9,52.4,18.2,63.7c-11.4,9.1-138.9,109.3-282.3,218.6c-143.4,111.6-305.1,236.8-355.2,277.8l-95.6,77.4L2632.2,1802.5z"/><path d="M7010.3,1533.9c-421.2-309.6-403-291.4-362-346.1c34.2-47.8,20.5-54.6,541.8,266.4l291.4,179.9l-52.4,77.4c-27.3,43.3-54.7,77.4-61.5,77.4C7360.9,1788.9,7201.6,1672.7,7010.3,1533.9z"/><path d="M2438.7,1495.2c-18.2-36.4-34.2-70.6-34.2-77.4c0-6.8,186.7-107,414.4-220.8c384.8-193.5,416.6-204.9,444-166.2c15.9,22.8,29.6,47.8,29.6,56.9c0,18.2-767.2,475.8-796.8,475.8C2484.3,1563.5,2459.2,1533.9,2438.7,1495.2z"/><path d="M7146.9,1262.9c-393.9-216.3-414.4-229.9-389.3-275.5c13.7-27.3,27.3-52.4,29.6-56.9c4.6-4.6,828.7,373.4,844.6,389.3c6.8,6.8-6.8,47.8-29.6,91.1l-41,82L7146.9,1262.9z"/><path d="M2290.7,1174.2c-18.2-38.7-20.5-77.4-9.1-88.8c11.4-11.4,209.4-86.5,441.7-168.5c418.9-145.7,466.7-152.5,448.5-61.5c-4.6,31.9-765,389.3-826.4,389.3C2331.7,1244.7,2306.7,1212.9,2290.7,1174.2z"/><path d="M7253.9,987.5c-218.6-86.5-403-161.7-407.5-166.2c-2.3-4.5,2.3-31.9,11.4-61.5l20.5-54.6l414.4,129.8c227.7,70.6,428,136.6,446.2,143.4c29.6,11.4,31.9,27.3,11.4,93.3c-15.9,50.1-38.7,82-61.5,79.7C7668.3,1151.4,7472.5,1076.3,7253.9,987.5z"/><path d="M2181.5,841.8c-13.7-45.5-20.5-88.8-15.9-93.3c13.7-13.7,906.1-211.7,912.9-202.6c4.6,4.6,11.4,31.9,13.7,59.2c6.8,50.1-20.5,61.5-389.3,173C2156.4,946.5,2211.1,939.7,2181.5,841.8z"/><path d="M7367.8,712c-439.4-116.1-484.9-138.9-437.1-211.7c13.7-22.8,120.7-9.1,459.9,52.4c243.6,45.5,450.8,88.8,457.6,97.9c9.1,6.8,2.3,50.1-11.4,95.6l-25,82L7367.8,712z"/><path d="M2122.3,548.1c-6.8-20.5-13.7-63.7-13.7-97.9v-61.5l416.6-38.7c535-50.1,516.8-50.1,516.8,15.9c0,63.8,34.2,54.6-466.7,138.9c-186.7,31.9-364.3,61.5-389.3,68.3C2154.1,579.9,2131.4,570.8,2122.3,548.1z"/><path d="M7379.1,411.5c-200.3-29.6-377.9-52.4-391.6-54.6c-15.9,0-29.6-25-29.6-56.9c0-54.6,6.8-56.9,122.9-56.9c120.7,0,819.6,45.5,824.1,52.4c2.3,2.3-2.3,43.3-9.1,91.1C7884.6,488.9,7896,488.9,7379.1,411.5z"/><path d="M2099.5,270.3c-6.8-6.8-13.7-52.4-13.7-100.2V83.6l473.5,4.6l471.3,6.8l6.8,63.8c6.8,50.1-2.3,61.5-41,61.5c-63.7,0-694.4,43.3-801.4,54.6C2149.6,279.4,2106.3,277.1,2099.5,270.3z"/><path d="M7135.5,113.2c-170.8-9.1-177.6-11.4-177.6-63.8c0-43.2,11.4-56.9,52.4-59.2c27.3,0,236.8-13.7,466.7-27.3c230-16,421.2-22.8,428-18.2c4.6,4.6,9.1,50.1,9.1,97.9v86.5l-300.5-4.6C7447.5,122.3,7231.2,115.5,7135.5,113.2z"/><path d="M2418.2-55.3c-173-11.4-318.7-22.8-321-25c-2.3-4.6,0-45.5,6.8-91.1c11.4-104.7-9.1-102.5,448.5-41c516.8,68.3,489.5,61.5,489.5,125.2c0,54.6-4.6,56.9-152.5,54.6C2803-34.8,2591.3-46.1,2418.2-55.3z"/><path d="M6953.4-153.2c-11.4-50.1-2.3-59.2,59.2-70.6c539.6-97.9,846.9-141.1,860.6-116.1c9.1,13.7,18.2,56.9,18.2,95.6v70.6l-334.7,27.3c-186.7,15.9-393.9,34.2-464.4,41C6969.3-93.9,6964.8-93.9,6953.4-153.2z"/><path d="M2609.5-339.8c-232.2-43.3-432.6-82-448.5-88.8c-18.2-6.8-20.5-31.9-2.3-97.9l22.8-91.1l446.2,116.1c248.2,63.7,453.1,118.4,457.6,120.7c13.7,11.4-20.5,122.9-38.7,120.7C3037.5-262.4,2841.7-298.8,2609.5-339.8z"/><path d="M6903.3-385.4c-9.1-31.9-13.7-61.4-9.1-63.7c4.6-4.6,639.7-191.2,862.9-255c27.3-6.8,43.3,13.7,61.5,79.7c18.2,77.4,15.9,93.3-15.9,102.5c-20.5,6.9-209.4,47.8-423.5,93.3c-211.7,45.5-403,86.5-423.5,93.4C6928.4-328.5,6912.4-342.1,6903.3-385.4z"/><path d="M2677.8-631.3c-207.2-63.8-393.9-125.2-414.4-132.1c-31.9-13.7-34.2-27.3-13.7-95.6c13.7-45.5,36.4-82,52.4-82c25,0,833.3,314.2,849.2,330.1c22.8,20.5-25,102.5-59.2,100.2C3071.6-512.9,2885-565.2,2677.8-631.3z"/><path d="M6837.3-592.5c-56.9-54.6,2.3-95.6,389.3-264.1c220.8-95.7,414.4-175.3,428-175.3c36.4,0,88.8,134.3,63.8,159.4c-20.5,20.5-803.7,296-844.7,296C6862.3-576.6,6844.1-583.4,6837.3-592.5z"/><path d="M2775.7-913.6c-214-95.6-396.1-182.1-405.2-189c-6.8-9.1,4.6-52.4,25-97.9l41-82l136.6,77.4c77.4,41,264.1,145.7,416.6,227.7c252.7,138.9,277.7,157.1,257.3,198.1c-13.7,22.8-36.4,43.2-52.4,41C3178.7-738.3,2992-817.9,2775.7-913.6z"/><path d="M6730.3-827.1c-11.4-22.8-22.8-47.8-22.8-54.6c0-15.9,767.2-469,794.6-469c34.2,0,100.2,138.9,77.4,161.7c-9.1,9.1-200.3,104.7-421.2,211.7C6782.7-797.5,6750.8-788.3,6730.3-827.1z"/><path d="M3076.2-1079.8c-125.2-77.4-302.8-184.4-393.9-241.3l-163.9-102.5l50.1-70.6c27.3-41,52.4-75.2,54.6-79.7c2.3-4.6,705.8,487.2,755.9,530.4c13.7,11.4-41,102.5-59.2,102.5C3310.7-940.9,3201.4-1004.6,3076.2-1079.8z"/><path d="M6598.3-1036.5c-41-41-36.4-52.4,93.3-148c63.7-50.1,232.2-179.9,373.4-286.9l255-195.8l50.1,79.7c27.3,45.5,41,88.8,29.6,97.9c-50.1,43.3-735.4,480.4-753.6,480.4C6634.7-1009.2,6614.2-1020.6,6598.3-1036.5z"/><path d="M3326.6-1234.6c-75.1-59.2-241.3-191.2-371.1-293.7L2721-1712.7l66-72.9l63.8-72.8l330.1,302.8c179.9,166.2,336.9,309.6,346,318.7c9.1,9.1,0,36.4-22.8,63.8l-41,47.8L3326.6-1234.6z"/><path d="M6450.3-1232.3c-34.2-38.7-18.2-59.2,291.4-368.8l330.1-330.1l70.6,70.6l70.6,70.6l-355.2,300.5c-193.5,163.9-357.4,298.2-362,298.2C6491.2-1191.3,6470.7-1209.5,6450.3-1232.3z"/><path d="M3292.5-1635.3l-330.1-330.1l70.6-70.6l70.6-70.6l257.3,305.1c141.2,166.2,277.8,325.5,305.1,355.2c45.5,50.1,45.5,52.4,0,95.6C3622.6-1305.2,3620.3-1307.4,3292.5-1635.3z"/><path d="M6256.7-1403c-18.2-22.8,45.5-118.4,268.7-398.4l291.4-371.1l75.1,66l72.9,63.7l-311.9,334.7c-173,184.4-327.8,334.7-343.8,334.7S6270.4-1387.1,6256.7-1403z"/></g></g>
</svg>