<?xml version="1.0" encoding="iso-8859-1"?>
<!-- Uploaded to: SVG Repo, www.svgrepo.com, Generator: SVG Repo Mixer Tools -->
<!DOCTYPE svg PUBLIC "-//W3C//DTD SVG 1.1//EN" "http://www.w3.org/Graphics/SVG/1.1/DTD/svg11.dtd">
<svg fill="#000000" height="800px" width="800px" version="1.1" id="Capa_1" xmlns="http://www.w3.org/2000/svg" xmlns:xlink="http://www.w3.org/1999/xlink" 
	 viewBox="0 0 297 297" xml:space="preserve">
<g>
	<circle cx="148.5" cy="234.824" r="17.922"/>
	<path d="M247.343,0H49.657c-7.314,0-13.243,5.929-13.243,13.243v250.908c0,5.644,3.534,10.464,8.509,12.37
		C78.023,290.11,112.916,297,148.641,297c35.83,0,70.742-6.935,103.764-20.613l-0.011-0.028c3.835-1.629,8.184-5.488,8.187-12.923
		l0.005-250.194C260.586,5.929,254.657,0,247.343,0z M234.096,255.134c-27.357,10.21-56.063,15.38-85.455,15.38
		c-29.422,0-58.223-5.177-85.74-15.399V26.486H234.1C234.1,71.452,234.099,217.385,234.096,255.134z"/>
	<path d="M148.501,183.64c22.163,0,40.193-18.061,40.193-40.261c0-19.119-23.782-43.201-31.071-50.127
		c-5.111-4.857-13.132-4.855-18.243,0c-7.289,6.926-31.072,31.007-31.072,50.127C108.307,165.58,126.338,183.64,148.501,183.64z
		 M148.501,122.051c7.664,8.844,13.576,17.775,13.707,21.328c0,7.595-6.149,13.775-13.707,13.775
		c-7.559,0-13.708-6.18-13.708-13.759C134.923,139.831,140.837,130.894,148.501,122.051z"/>
</g>
</svg>